<svg width="10" height="10" viewBox="0 0 10 10" fill="none" xmlns="http://www.w3.org/2000/svg">
<path d="M9.20021 0H0.854463C0.398437 0 0 0.328125 0 0.778795V9.14308C0 9.59621 0.398437 10 0.854463 10H9.19775C9.65623 10 9.99998 9.59353 9.99998 9.14308V0.778795C10.0027 0.328125 9.65624 0 9.20021 0ZM3.09977 8.33549H1.66718V3.88125H3.09977V8.33549ZM2.43303 3.20402H2.42276C1.96428 3.20402 1.66741 2.86272 1.66741 2.43549C1.66741 2.00045 1.9721 1.66719 2.44084 1.66719C2.90959 1.66719 3.19642 1.99799 3.20669 2.43549C3.20647 2.86272 2.90959 3.20402 2.43303 3.20402ZM8.33548 8.33549H6.90289V5.9C6.90289 5.31652 6.69441 4.91786 6.17611 4.91786C5.78013 4.91786 5.54575 5.18571 5.44151 5.44665C5.40245 5.5404 5.39196 5.66808 5.39196 5.79844V8.33549H3.95937V3.88125H5.39196V4.50112C5.60044 4.20424 5.92611 3.77701 6.68392 3.77701C7.62432 3.77701 8.3357 4.39688 8.3357 5.73326L8.33548 8.33549Z" fill="#505050"/>
</svg>
